<mxfile host="app.diagrams.net" modified="2024-03-17T00:50:19.589Z" agent="Mozilla/5.0 (Macintosh; Intel Mac OS X 10_15_7) AppleWebKit/537.36 (KHTML, like Gecko) Chrome/122.0.0.0 Safari/537.36" etag="jmcV9dgNQUFCwNaUL4pr" version="24.0.2" type="github">
  <diagram name="PÃ¡gina-1" id="lGnF9H1Lcmf4lvGc7-DW">
    <mxGraphModel dx="2369" dy="1149" grid="1" gridSize="10" guides="1" tooltips="1" connect="1" arrows="1" fold="1" page="1" pageScale="1" pageWidth="827" pageHeight="1169" math="0" shadow="0">
      <root>
        <mxCell id="0" />
        <mxCell id="1" parent="0" />
        <mxCell id="ovnq_b6lXp1vGBs1KSgW-1" value="Main" style="swimlane;fontStyle=1;align=center;verticalAlign=top;childLayout=stackLayout;horizontal=1;startSize=26;horizontalStack=0;resizeParent=1;resizeParentMax=0;resizeLast=0;collapsible=1;marginBottom=0;whiteSpace=wrap;html=1;" parent="1" vertex="1">
          <mxGeometry x="30" y="40" width="160" height="60" as="geometry" />
        </mxCell>
        <mxCell id="ovnq_b6lXp1vGBs1KSgW-2" value="" style="line;strokeWidth=1;fillColor=none;align=left;verticalAlign=middle;spacingTop=-1;spacingLeft=3;spacingRight=3;rotatable=0;labelPosition=right;points=[];portConstraint=eastwest;strokeColor=inherit;" parent="ovnq_b6lXp1vGBs1KSgW-1" vertex="1">
          <mxGeometry y="26" width="160" height="8" as="geometry" />
        </mxCell>
        <mxCell id="ovnq_b6lXp1vGBs1KSgW-3" value="+ main(String): void" style="text;strokeColor=none;fillColor=none;align=left;verticalAlign=top;spacingLeft=4;spacingRight=4;overflow=hidden;rotatable=0;points=[[0,0.5],[1,0.5]];portConstraint=eastwest;whiteSpace=wrap;html=1;" parent="ovnq_b6lXp1vGBs1KSgW-1" vertex="1">
          <mxGeometry y="34" width="160" height="26" as="geometry" />
        </mxCell>
        <mxCell id="ovnq_b6lXp1vGBs1KSgW-4" value="LispInterpreter" style="swimlane;fontStyle=1;align=center;verticalAlign=top;childLayout=stackLayout;horizontal=1;startSize=26;horizontalStack=0;resizeParent=1;resizeParentMax=0;resizeLast=0;collapsible=1;marginBottom=0;whiteSpace=wrap;html=1;" parent="1" vertex="1">
          <mxGeometry x="30" y="400" width="170" height="360" as="geometry" />
        </mxCell>
        <mxCell id="ovnq_b6lXp1vGBs1KSgW-5" value="- context: ExecutionContext&lt;div&gt;- stack: Stack&amp;lt;Object&amp;gt;&lt;/div&gt;&lt;div&gt;- sintaxScanner: SintaxScanner&lt;/div&gt;&lt;div&gt;- elements: ArrayList&amp;lt;String&amp;gt;&lt;/div&gt;&lt;div&gt;- op#: double&lt;/div&gt;&lt;div&gt;&lt;br&gt;&lt;/div&gt;" style="text;strokeColor=none;fillColor=none;align=left;verticalAlign=top;spacingLeft=4;spacingRight=4;overflow=hidden;rotatable=0;points=[[0,0.5],[1,0.5]];portConstraint=eastwest;whiteSpace=wrap;html=1;" parent="ovnq_b6lXp1vGBs1KSgW-4" vertex="1">
          <mxGeometry y="26" width="170" height="104" as="geometry" />
        </mxCell>
        <mxCell id="ovnq_b6lXp1vGBs1KSgW-6" value="" style="line;strokeWidth=1;fillColor=none;align=left;verticalAlign=middle;spacingTop=-1;spacingLeft=3;spacingRight=3;rotatable=0;labelPosition=right;points=[];portConstraint=eastwest;strokeColor=inherit;" parent="ovnq_b6lXp1vGBs1KSgW-4" vertex="1">
          <mxGeometry y="130" width="170" height="8" as="geometry" />
        </mxCell>
        <mxCell id="ovnq_b6lXp1vGBs1KSgW-7" value="+ lispInterpreter (): ExecutionContext&amp;nbsp;&lt;br&gt;+operate(String expression): Object&lt;br&gt;-performOperation(String operator, Object operand1, Object operand2): Object&lt;div&gt;-isOperand (String token): boolean&lt;/div&gt;&lt;div&gt;- isOperator(String token): boolean&lt;/div&gt;&lt;div&gt;-performPredicado (String expression, int operation): IPredicadosResult&lt;/div&gt;" style="text;strokeColor=none;fillColor=none;align=left;verticalAlign=top;spacingLeft=4;spacingRight=4;overflow=hidden;rotatable=0;points=[[0,0.5],[1,0.5]];portConstraint=eastwest;whiteSpace=wrap;html=1;" parent="ovnq_b6lXp1vGBs1KSgW-4" vertex="1">
          <mxGeometry y="138" width="170" height="222" as="geometry" />
        </mxCell>
        <mxCell id="ovnq_b6lXp1vGBs1KSgW-8" value="" style="shape=umlLifeline;perimeter=lifelinePerimeter;whiteSpace=wrap;html=1;container=1;dropTarget=0;collapsible=0;recursiveResize=0;outlineConnect=0;portConstraint=eastwest;newEdgeStyle={&quot;curved&quot;:0,&quot;rounded&quot;:0};participant=umlActor;" parent="1" vertex="1">
          <mxGeometry x="-400" y="940" width="20" height="580" as="geometry" />
        </mxCell>
        <mxCell id="ovnq_b6lXp1vGBs1KSgW-9" value="Main" style="shape=umlLifeline;perimeter=lifelinePerimeter;whiteSpace=wrap;html=1;container=1;dropTarget=0;collapsible=0;recursiveResize=0;outlineConnect=0;portConstraint=eastwest;newEdgeStyle={&quot;curved&quot;:0,&quot;rounded&quot;:0};" parent="1" vertex="1">
          <mxGeometry x="-280" y="940" width="100" height="600" as="geometry" />
        </mxCell>
        <mxCell id="ovnq_b6lXp1vGBs1KSgW-10" value="" style="html=1;points=[[0,0,0,0,5],[0,1,0,0,-5],[1,0,0,0,5],[1,1,0,0,-5]];perimeter=orthogonalPerimeter;outlineConnect=0;targetShapes=umlLifeline;portConstraint=eastwest;newEdgeStyle={&quot;curved&quot;:0,&quot;rounded&quot;:0};" parent="ovnq_b6lXp1vGBs1KSgW-9" vertex="1">
          <mxGeometry x="40" y="60" width="10" height="120" as="geometry" />
        </mxCell>
        <mxCell id="ovnq_b6lXp1vGBs1KSgW-11" value="" style="html=1;points=[[0,0,0,0,5],[0,1,0,0,-5],[1,0,0,0,5],[1,1,0,0,-5]];perimeter=orthogonalPerimeter;outlineConnect=0;targetShapes=umlLifeline;portConstraint=eastwest;newEdgeStyle={&quot;curved&quot;:0,&quot;rounded&quot;:0};" parent="ovnq_b6lXp1vGBs1KSgW-9" vertex="1">
          <mxGeometry x="40" y="210" width="10" height="105" as="geometry" />
        </mxCell>
        <mxCell id="ovnq_b6lXp1vGBs1KSgW-12" value="" style="html=1;points=[[0,0,0,0,5],[0,1,0,0,-5],[1,0,0,0,5],[1,1,0,0,-5]];perimeter=orthogonalPerimeter;outlineConnect=0;targetShapes=umlLifeline;portConstraint=eastwest;newEdgeStyle={&quot;curved&quot;:0,&quot;rounded&quot;:0};" parent="ovnq_b6lXp1vGBs1KSgW-9" vertex="1">
          <mxGeometry x="40" y="360" width="10" height="120" as="geometry" />
        </mxCell>
        <mxCell id="ovnq_b6lXp1vGBs1KSgW-13" value="IEvaluator" style="shape=umlLifeline;perimeter=lifelinePerimeter;whiteSpace=wrap;html=1;container=1;dropTarget=0;collapsible=0;recursiveResize=0;outlineConnect=0;portConstraint=eastwest;newEdgeStyle={&quot;curved&quot;:0,&quot;rounded&quot;:0};" parent="1" vertex="1">
          <mxGeometry x="-90" y="940" width="100" height="600" as="geometry" />
        </mxCell>
        <mxCell id="ovnq_b6lXp1vGBs1KSgW-14" value="" style="html=1;points=[[0,0,0,0,5],[0,1,0,0,-5],[1,0,0,0,5],[1,1,0,0,-5]];perimeter=orthogonalPerimeter;outlineConnect=0;targetShapes=umlLifeline;portConstraint=eastwest;newEdgeStyle={&quot;curved&quot;:0,&quot;rounded&quot;:0};" parent="ovnq_b6lXp1vGBs1KSgW-13" vertex="1">
          <mxGeometry x="40" y="380" width="10" height="90" as="geometry" />
        </mxCell>
        <mxCell id="ovnq_b6lXp1vGBs1KSgW-15" value="" style="html=1;points=[[0,0,0,0,5],[0,1,0,0,-5],[1,0,0,0,5],[1,1,0,0,-5]];perimeter=orthogonalPerimeter;outlineConnect=0;targetShapes=umlLifeline;portConstraint=eastwest;newEdgeStyle={&quot;curved&quot;:0,&quot;rounded&quot;:0};" parent="ovnq_b6lXp1vGBs1KSgW-13" vertex="1">
          <mxGeometry x="40" y="223" width="10" height="80" as="geometry" />
        </mxCell>
        <mxCell id="ovnq_b6lXp1vGBs1KSgW-16" value="" style="html=1;points=[[0,0,0,0,5],[0,1,0,0,-5],[1,0,0,0,5],[1,1,0,0,-5]];perimeter=orthogonalPerimeter;outlineConnect=0;targetShapes=umlLifeline;portConstraint=eastwest;newEdgeStyle={&quot;curved&quot;:0,&quot;rounded&quot;:0};" parent="ovnq_b6lXp1vGBs1KSgW-13" vertex="1">
          <mxGeometry x="45" y="80" width="10" height="80" as="geometry" />
        </mxCell>
        <mxCell id="ovnq_b6lXp1vGBs1KSgW-17" value="Select SetVariable, enter name,value" style="html=1;verticalAlign=bottom;endArrow=block;curved=0;rounded=0;entryX=0;entryY=0;entryDx=0;entryDy=5;" parent="1" source="ovnq_b6lXp1vGBs1KSgW-8" target="ovnq_b6lXp1vGBs1KSgW-10" edge="1">
          <mxGeometry x="-0.0033" relative="1" as="geometry">
            <mxPoint x="-300" y="955" as="sourcePoint" />
            <mxPoint as="offset" />
          </mxGeometry>
        </mxCell>
        <mxCell id="ovnq_b6lXp1vGBs1KSgW-18" value="Show SetVarible Result" style="html=1;verticalAlign=bottom;endArrow=open;dashed=1;endSize=8;curved=0;rounded=0;exitX=0;exitY=1;exitDx=0;exitDy=-5;" parent="1" source="ovnq_b6lXp1vGBs1KSgW-10" target="ovnq_b6lXp1vGBs1KSgW-8" edge="1">
          <mxGeometry x="-0.0033" relative="1" as="geometry">
            <mxPoint x="-300" y="1025" as="targetPoint" />
            <mxPoint as="offset" />
          </mxGeometry>
        </mxCell>
        <mxCell id="ovnq_b6lXp1vGBs1KSgW-19" value="Select getVariable, enter name" style="html=1;verticalAlign=bottom;endArrow=block;curved=0;rounded=0;entryX=0;entryY=0;entryDx=0;entryDy=5;entryPerimeter=0;" parent="1" source="ovnq_b6lXp1vGBs1KSgW-8" target="ovnq_b6lXp1vGBs1KSgW-11" edge="1">
          <mxGeometry x="-0.0033" relative="1" as="geometry">
            <mxPoint x="-381" y="965" as="sourcePoint" />
            <mxPoint x="-220.00000000000023" y="1090.0000000000002" as="targetPoint" />
            <mxPoint as="offset" />
          </mxGeometry>
        </mxCell>
        <mxCell id="ovnq_b6lXp1vGBs1KSgW-20" value="Show getVariable Result" style="html=1;verticalAlign=bottom;endArrow=open;dashed=1;endSize=8;curved=0;rounded=0;" parent="1" edge="1">
          <mxGeometry relative="1" as="geometry">
            <mxPoint x="-390" y="1230" as="targetPoint" />
            <mxPoint x="-240" y="1230" as="sourcePoint" />
          </mxGeometry>
        </mxCell>
        <mxCell id="ovnq_b6lXp1vGBs1KSgW-21" value="eval()" style="html=1;verticalAlign=bottom;endArrow=block;curved=0;rounded=0;" parent="1" edge="1">
          <mxGeometry relative="1" as="geometry">
            <mxPoint x="-229.99647058823558" y="1030" as="sourcePoint" />
            <mxPoint x="-50" y="1030" as="targetPoint" />
            <mxPoint as="offset" />
          </mxGeometry>
        </mxCell>
        <mxCell id="ovnq_b6lXp1vGBs1KSgW-22" value="Expression" style="html=1;verticalAlign=bottom;endArrow=open;dashed=1;endSize=8;curved=0;rounded=0;" parent="1" edge="1">
          <mxGeometry relative="1" as="geometry">
            <mxPoint x="-229.99647058823558" y="1089.29" as="targetPoint" />
            <mxPoint as="offset" />
            <mxPoint x="-50" y="1089" as="sourcePoint" />
          </mxGeometry>
        </mxCell>
        <mxCell id="ovnq_b6lXp1vGBs1KSgW-23" value="Select clone" style="html=1;verticalAlign=bottom;endArrow=block;curved=0;rounded=0;entryX=0;entryY=0;entryDx=0;entryDy=5;" parent="1" source="ovnq_b6lXp1vGBs1KSgW-8" target="ovnq_b6lXp1vGBs1KSgW-12" edge="1">
          <mxGeometry x="-0.0033" relative="1" as="geometry">
            <mxPoint x="-300" y="1255" as="sourcePoint" />
            <mxPoint as="offset" />
          </mxGeometry>
        </mxCell>
        <mxCell id="ovnq_b6lXp1vGBs1KSgW-24" value="Show clone Result" style="html=1;verticalAlign=bottom;endArrow=open;dashed=1;endSize=8;curved=0;rounded=0;exitX=0;exitY=1;exitDx=0;exitDy=-5;" parent="1" source="ovnq_b6lXp1vGBs1KSgW-12" target="ovnq_b6lXp1vGBs1KSgW-8" edge="1">
          <mxGeometry relative="1" as="geometry">
            <mxPoint x="-300" y="1325" as="targetPoint" />
          </mxGeometry>
        </mxCell>
        <mxCell id="ovnq_b6lXp1vGBs1KSgW-25" value="eval()" style="html=1;verticalAlign=bottom;endArrow=block;curved=0;rounded=0;entryX=0;entryY=0;entryDx=0;entryDy=5;" parent="1" source="ovnq_b6lXp1vGBs1KSgW-12" target="ovnq_b6lXp1vGBs1KSgW-14" edge="1">
          <mxGeometry relative="1" as="geometry">
            <mxPoint x="-120" y="1275" as="sourcePoint" />
            <mxPoint as="offset" />
          </mxGeometry>
        </mxCell>
        <mxCell id="ovnq_b6lXp1vGBs1KSgW-26" value="Expression" style="html=1;verticalAlign=bottom;endArrow=open;dashed=1;endSize=8;curved=0;rounded=0;exitX=0;exitY=1;exitDx=0;exitDy=-5;" parent="1" source="ovnq_b6lXp1vGBs1KSgW-14" target="ovnq_b6lXp1vGBs1KSgW-9" edge="1">
          <mxGeometry relative="1" as="geometry">
            <mxPoint x="-120" y="1345" as="targetPoint" />
          </mxGeometry>
        </mxCell>
        <mxCell id="ovnq_b6lXp1vGBs1KSgW-27" value="eval()" style="html=1;verticalAlign=bottom;endArrow=block;curved=0;rounded=0;entryX=0;entryY=0;entryDx=0;entryDy=5;" parent="1" source="ovnq_b6lXp1vGBs1KSgW-9" target="ovnq_b6lXp1vGBs1KSgW-15" edge="1">
          <mxGeometry x="-0.0018" relative="1" as="geometry">
            <mxPoint x="-120" y="1118" as="sourcePoint" />
            <mxPoint as="offset" />
          </mxGeometry>
        </mxCell>
        <mxCell id="ovnq_b6lXp1vGBs1KSgW-28" value="Expression" style="html=1;verticalAlign=bottom;endArrow=open;dashed=1;endSize=8;curved=0;rounded=0;exitX=0;exitY=1;exitDx=0;exitDy=-5;" parent="1" source="ovnq_b6lXp1vGBs1KSgW-15" target="ovnq_b6lXp1vGBs1KSgW-9" edge="1">
          <mxGeometry relative="1" as="geometry">
            <mxPoint x="-120" y="1188" as="targetPoint" />
          </mxGeometry>
        </mxCell>
        <mxCell id="ovnq_b6lXp1vGBs1KSgW-29" value="" style="endArrow=diamondThin;endFill=1;endSize=24;html=1;rounded=0;entryX=0.006;entryY=0.072;entryDx=0;entryDy=0;entryPerimeter=0;" parent="1" edge="1">
          <mxGeometry width="160" relative="1" as="geometry">
            <mxPoint x="190" y="70" as="sourcePoint" />
            <mxPoint x="280.8399999999999" y="69.24800000000005" as="targetPoint" />
          </mxGeometry>
        </mxCell>
        <mxCell id="ovnq_b6lXp1vGBs1KSgW-30" value="&amp;lt;&amp;lt;Interphase&amp;gt;&amp;gt;&lt;br&gt;IGraphicEvaluator" style="swimlane;fontStyle=0;childLayout=stackLayout;horizontal=1;startSize=26;fillColor=none;horizontalStack=0;resizeParent=1;resizeParentMax=0;resizeLast=0;collapsible=1;marginBottom=0;whiteSpace=wrap;html=1;" parent="1" vertex="1">
          <mxGeometry x="344" y="210" width="140" height="56" as="geometry" />
        </mxCell>
        <mxCell id="ovnq_b6lXp1vGBs1KSgW-31" value="Expression" style="html=1;verticalAlign=bottom;endArrow=open;dashed=1;endSize=8;curved=0;rounded=0;exitX=0;exitY=1;exitDx=0;exitDy=-5;" parent="1" target="ovnq_b6lXp1vGBs1KSgW-13" edge="1">
          <mxGeometry x="-0.0025" relative="1" as="geometry">
            <mxPoint x="25" y="1238" as="targetPoint" />
            <mxPoint as="offset" />
            <mxPoint x="105" y="1215" as="sourcePoint" />
          </mxGeometry>
        </mxCell>
        <mxCell id="ovnq_b6lXp1vGBs1KSgW-32" value="getVariable(name)" style="html=1;verticalAlign=bottom;endArrow=block;curved=0;rounded=0;entryX=0;entryY=0;entryDx=0;entryDy=5;" parent="1" source="ovnq_b6lXp1vGBs1KSgW-13" edge="1">
          <mxGeometry relative="1" as="geometry">
            <mxPoint x="25" y="1168" as="sourcePoint" />
            <mxPoint x="105" y="1185" as="targetPoint" />
          </mxGeometry>
        </mxCell>
        <mxCell id="ovnq_b6lXp1vGBs1KSgW-33" value="Expression" style="html=1;verticalAlign=bottom;endArrow=open;dashed=1;endSize=8;curved=0;rounded=0;" parent="1" source="ovnq_b6lXp1vGBs1KSgW-45" target="ovnq_b6lXp1vGBs1KSgW-13" edge="1">
          <mxGeometry relative="1" as="geometry">
            <mxPoint x="25" y="1395" as="targetPoint" />
            <mxPoint x="105" y="1370" as="sourcePoint" />
            <Array as="points">
              <mxPoint x="70" y="1390" />
            </Array>
          </mxGeometry>
        </mxCell>
        <mxCell id="ovnq_b6lXp1vGBs1KSgW-34" value="clone()" style="html=1;verticalAlign=bottom;endArrow=block;curved=0;rounded=0;" parent="1" source="ovnq_b6lXp1vGBs1KSgW-13" edge="1">
          <mxGeometry relative="1" as="geometry">
            <mxPoint x="25" y="1325" as="sourcePoint" />
            <mxPoint x="105" y="1355" as="targetPoint" />
          </mxGeometry>
        </mxCell>
        <mxCell id="ovnq_b6lXp1vGBs1KSgW-35" value="&amp;lt;&amp;lt;Interphase&amp;gt;&amp;gt;&lt;br&gt;IEvaluator" style="swimlane;fontStyle=0;childLayout=stackLayout;horizontal=1;startSize=26;fillColor=none;horizontalStack=0;resizeParent=1;resizeParentMax=0;resizeLast=0;collapsible=1;marginBottom=0;whiteSpace=wrap;html=1;" parent="1" vertex="1">
          <mxGeometry x="285" y="40" width="258" height="66" as="geometry" />
        </mxCell>
        <mxCell id="ovnq_b6lXp1vGBs1KSgW-36" value="+IEvaluator throws Exception(String expression &lt;br&gt;ExecutionContext context): String eval&amp;nbsp;" style="text;html=1;align=center;verticalAlign=middle;resizable=0;points=[];autosize=1;strokeColor=none;fillColor=none;" parent="ovnq_b6lXp1vGBs1KSgW-35" vertex="1">
          <mxGeometry y="26" width="258" height="40" as="geometry" />
        </mxCell>
        <mxCell id="ovnq_b6lXp1vGBs1KSgW-37" value="" style="endArrow=diamondThin;endFill=1;endSize=24;html=1;rounded=0;entryX=0;entryY=0.5;entryDx=0;entryDy=0;exitX=1.009;exitY=-0.024;exitDx=0;exitDy=0;exitPerimeter=0;" parent="1" source="ovnq_b6lXp1vGBs1KSgW-3" target="ovnq_b6lXp1vGBs1KSgW-30" edge="1">
          <mxGeometry width="160" relative="1" as="geometry">
            <mxPoint x="190" y="158.23000000000002" as="sourcePoint" />
            <mxPoint x="280.8399999999999" y="157.47800000000007" as="targetPoint" />
          </mxGeometry>
        </mxCell>
        <mxCell id="ovnq_b6lXp1vGBs1KSgW-38" value="ExecutionContext" style="swimlane;fontStyle=1;align=center;verticalAlign=top;childLayout=stackLayout;horizontal=1;startSize=26;horizontalStack=0;resizeParent=1;resizeParentMax=0;resizeLast=0;collapsible=1;marginBottom=0;whiteSpace=wrap;html=1;" parent="1" vertex="1">
          <mxGeometry x="580" y="40" width="160" height="170" as="geometry" />
        </mxCell>
        <mxCell id="ovnq_b6lXp1vGBs1KSgW-39" value="" style="endArrow=block;endFill=1;html=1;edgeStyle=orthogonalEdgeStyle;align=left;verticalAlign=top;rounded=0;entryX=-0.007;entryY=0.694;entryDx=0;entryDy=0;entryPerimeter=0;" parent="ovnq_b6lXp1vGBs1KSgW-38" target="ovnq_b6lXp1vGBs1KSgW-40" edge="1">
          <mxGeometry x="-1" relative="1" as="geometry">
            <mxPoint x="-40" y="30" as="sourcePoint" />
            <mxPoint x="120" y="30" as="targetPoint" />
          </mxGeometry>
        </mxCell>
        <mxCell id="ovnq_b6lXp1vGBs1KSgW-40" value="- variables: Map &amp;lt;String, String&amp;gt;" style="text;strokeColor=none;fillColor=none;align=left;verticalAlign=top;spacingLeft=4;spacingRight=4;overflow=hidden;rotatable=0;points=[[0,0.5],[1,0.5]];portConstraint=eastwest;whiteSpace=wrap;html=1;" parent="ovnq_b6lXp1vGBs1KSgW-38" vertex="1">
          <mxGeometry y="26" width="160" height="44" as="geometry" />
        </mxCell>
        <mxCell id="ovnq_b6lXp1vGBs1KSgW-41" value="" style="line;strokeWidth=1;fillColor=none;align=left;verticalAlign=middle;spacingTop=-1;spacingLeft=3;spacingRight=3;rotatable=0;labelPosition=right;points=[];portConstraint=eastwest;strokeColor=inherit;" parent="ovnq_b6lXp1vGBs1KSgW-38" vertex="1">
          <mxGeometry y="70" width="160" height="8" as="geometry" />
        </mxCell>
        <mxCell id="ovnq_b6lXp1vGBs1KSgW-42" value="+setVariable(String name, String value): void&lt;br&gt;+getVariable(String name): String&lt;br&gt;+clone(): ExecutionContext" style="text;strokeColor=none;fillColor=none;align=left;verticalAlign=top;spacingLeft=4;spacingRight=4;overflow=hidden;rotatable=0;points=[[0,0.5],[1,0.5]];portConstraint=eastwest;whiteSpace=wrap;html=1;" parent="ovnq_b6lXp1vGBs1KSgW-38" vertex="1">
          <mxGeometry y="78" width="160" height="92" as="geometry" />
        </mxCell>
        <mxCell id="ovnq_b6lXp1vGBs1KSgW-44" style="edgeStyle=orthogonalEdgeStyle;rounded=0;orthogonalLoop=1;jettySize=auto;html=1;" parent="1" source="ovnq_b6lXp1vGBs1KSgW-36" target="ovnq_b6lXp1vGBs1KSgW-30" edge="1">
          <mxGeometry relative="1" as="geometry" />
        </mxCell>
        <mxCell id="ovnq_b6lXp1vGBs1KSgW-45" value="ExecutionContext" style="shape=umlLifeline;perimeter=lifelinePerimeter;whiteSpace=wrap;html=1;container=1;dropTarget=0;collapsible=0;recursiveResize=0;outlineConnect=0;portConstraint=eastwest;newEdgeStyle={&quot;curved&quot;:0,&quot;rounded&quot;:0};" parent="1" vertex="1">
          <mxGeometry x="80" y="930" width="100" height="610" as="geometry" />
        </mxCell>
        <mxCell id="ovnq_b6lXp1vGBs1KSgW-46" value="" style="html=1;points=[[0,0,0,0,5],[0,1,0,0,-5],[1,0,0,0,5],[1,1,0,0,-5]];perimeter=orthogonalPerimeter;outlineConnect=0;targetShapes=umlLifeline;portConstraint=eastwest;newEdgeStyle={&quot;curved&quot;:0,&quot;rounded&quot;:0};" parent="ovnq_b6lXp1vGBs1KSgW-45" vertex="1">
          <mxGeometry x="45" y="230" width="10" height="80" as="geometry" />
        </mxCell>
        <mxCell id="ovnq_b6lXp1vGBs1KSgW-47" value="" style="html=1;points=[[0,0,0,0,5],[0,1,0,0,-5],[1,0,0,0,5],[1,1,0,0,-5]];perimeter=orthogonalPerimeter;outlineConnect=0;targetShapes=umlLifeline;portConstraint=eastwest;newEdgeStyle={&quot;curved&quot;:0,&quot;rounded&quot;:0};" parent="ovnq_b6lXp1vGBs1KSgW-45" vertex="1">
          <mxGeometry x="45" y="410" width="10" height="80" as="geometry" />
        </mxCell>
        <mxCell id="ovnq_b6lXp1vGBs1KSgW-48" value="" style="html=1;points=[[0,0,0,0,5],[0,1,0,0,-5],[1,0,0,0,5],[1,1,0,0,-5]];perimeter=orthogonalPerimeter;outlineConnect=0;targetShapes=umlLifeline;portConstraint=eastwest;newEdgeStyle={&quot;curved&quot;:0,&quot;rounded&quot;:0};" parent="ovnq_b6lXp1vGBs1KSgW-45" vertex="1">
          <mxGeometry x="45" y="80" width="10" height="80" as="geometry" />
        </mxCell>
        <mxCell id="ovnq_b6lXp1vGBs1KSgW-49" value="setVariable(name,value)" style="html=1;verticalAlign=bottom;endArrow=block;curved=0;rounded=0;" parent="1" target="ovnq_b6lXp1vGBs1KSgW-45" edge="1">
          <mxGeometry width="80" relative="1" as="geometry">
            <mxPoint x="-37" y="1040" as="sourcePoint" />
            <mxPoint x="43" y="1040" as="targetPoint" />
          </mxGeometry>
        </mxCell>
        <mxCell id="ovnq_b6lXp1vGBs1KSgW-50" value="Expression" style="html=1;verticalAlign=bottom;endArrow=open;dashed=1;endSize=8;curved=0;rounded=0;" parent="1" target="ovnq_b6lXp1vGBs1KSgW-16" edge="1">
          <mxGeometry relative="1" as="geometry">
            <mxPoint x="-30" y="1070" as="targetPoint" />
            <mxPoint as="offset" />
            <mxPoint x="120" y="1070" as="sourcePoint" />
          </mxGeometry>
        </mxCell>
        <mxCell id="ovnq_b6lXp1vGBs1KSgW-51" value="" style="shape=umlLifeline;perimeter=lifelinePerimeter;whiteSpace=wrap;html=1;container=1;dropTarget=0;collapsible=0;recursiveResize=0;outlineConnect=0;portConstraint=eastwest;newEdgeStyle={&quot;curved&quot;:0,&quot;rounded&quot;:0};participant=umlActor;" parent="1" vertex="1">
          <mxGeometry x="270" y="950" width="20" height="390" as="geometry" />
        </mxCell>
        <mxCell id="ovnq_b6lXp1vGBs1KSgW-52" value="Main" style="shape=umlLifeline;perimeter=lifelinePerimeter;whiteSpace=wrap;html=1;container=1;dropTarget=0;collapsible=0;recursiveResize=0;outlineConnect=0;portConstraint=eastwest;newEdgeStyle={&quot;curved&quot;:0,&quot;rounded&quot;:0};" parent="1" vertex="1">
          <mxGeometry x="390" y="950" width="100" height="390" as="geometry" />
        </mxCell>
        <mxCell id="ovnq_b6lXp1vGBs1KSgW-53" value="" style="html=1;points=[[0,0,0,0,5],[0,1,0,0,-5],[1,0,0,0,5],[1,1,0,0,-5]];perimeter=orthogonalPerimeter;outlineConnect=0;targetShapes=umlLifeline;portConstraint=eastwest;newEdgeStyle={&quot;curved&quot;:0,&quot;rounded&quot;:0};" parent="ovnq_b6lXp1vGBs1KSgW-52" vertex="1">
          <mxGeometry x="40" y="60" width="10" height="120" as="geometry" />
        </mxCell>
        <mxCell id="ovnq_b6lXp1vGBs1KSgW-54" value="" style="html=1;points=[[0,0,0,0,5],[0,1,0,0,-5],[1,0,0,0,5],[1,1,0,0,-5]];perimeter=orthogonalPerimeter;outlineConnect=0;targetShapes=umlLifeline;portConstraint=eastwest;newEdgeStyle={&quot;curved&quot;:0,&quot;rounded&quot;:0};" parent="ovnq_b6lXp1vGBs1KSgW-52" vertex="1">
          <mxGeometry x="40" y="210" width="10" height="105" as="geometry" />
        </mxCell>
        <mxCell id="ovnq_b6lXp1vGBs1KSgW-55" value="IEvaluator" style="shape=umlLifeline;perimeter=lifelinePerimeter;whiteSpace=wrap;html=1;container=1;dropTarget=0;collapsible=0;recursiveResize=0;outlineConnect=0;portConstraint=eastwest;newEdgeStyle={&quot;curved&quot;:0,&quot;rounded&quot;:0};" parent="1" vertex="1">
          <mxGeometry x="580" y="950" width="100" height="390" as="geometry" />
        </mxCell>
        <mxCell id="ovnq_b6lXp1vGBs1KSgW-56" value="" style="html=1;points=[[0,0,0,0,5],[0,1,0,0,-5],[1,0,0,0,5],[1,1,0,0,-5]];perimeter=orthogonalPerimeter;outlineConnect=0;targetShapes=umlLifeline;portConstraint=eastwest;newEdgeStyle={&quot;curved&quot;:0,&quot;rounded&quot;:0};" parent="ovnq_b6lXp1vGBs1KSgW-55" vertex="1">
          <mxGeometry x="40" y="223" width="10" height="80" as="geometry" />
        </mxCell>
        <mxCell id="ovnq_b6lXp1vGBs1KSgW-57" value="" style="html=1;points=[[0,0,0,0,5],[0,1,0,0,-5],[1,0,0,0,5],[1,1,0,0,-5]];perimeter=orthogonalPerimeter;outlineConnect=0;targetShapes=umlLifeline;portConstraint=eastwest;newEdgeStyle={&quot;curved&quot;:0,&quot;rounded&quot;:0};" parent="ovnq_b6lXp1vGBs1KSgW-55" vertex="1">
          <mxGeometry x="45" y="80" width="10" height="80" as="geometry" />
        </mxCell>
        <mxCell id="ovnq_b6lXp1vGBs1KSgW-58" value="Select eval, enter Object" style="html=1;verticalAlign=bottom;endArrow=block;curved=0;rounded=0;entryX=0;entryY=0;entryDx=0;entryDy=5;" parent="1" source="ovnq_b6lXp1vGBs1KSgW-51" target="ovnq_b6lXp1vGBs1KSgW-53" edge="1">
          <mxGeometry x="-0.0033" relative="1" as="geometry">
            <mxPoint x="370" y="965" as="sourcePoint" />
            <mxPoint as="offset" />
          </mxGeometry>
        </mxCell>
        <mxCell id="ovnq_b6lXp1vGBs1KSgW-59" value="Show eval Result" style="html=1;verticalAlign=bottom;endArrow=open;dashed=1;endSize=8;curved=0;rounded=0;exitX=0;exitY=1;exitDx=0;exitDy=-5;" parent="1" source="ovnq_b6lXp1vGBs1KSgW-53" target="ovnq_b6lXp1vGBs1KSgW-51" edge="1">
          <mxGeometry x="-0.0033" relative="1" as="geometry">
            <mxPoint x="370" y="1035" as="targetPoint" />
            <mxPoint as="offset" />
          </mxGeometry>
        </mxCell>
        <mxCell id="ovnq_b6lXp1vGBs1KSgW-60" value="Select lispInterpreter, enter environment" style="html=1;verticalAlign=bottom;endArrow=block;curved=0;rounded=0;entryX=0;entryY=0;entryDx=0;entryDy=5;entryPerimeter=0;" parent="1" source="ovnq_b6lXp1vGBs1KSgW-51" target="ovnq_b6lXp1vGBs1KSgW-54" edge="1">
          <mxGeometry x="-0.0033" relative="1" as="geometry">
            <mxPoint x="289" y="975" as="sourcePoint" />
            <mxPoint x="449.9999999999998" y="1100.0000000000002" as="targetPoint" />
            <mxPoint as="offset" />
          </mxGeometry>
        </mxCell>
        <mxCell id="ovnq_b6lXp1vGBs1KSgW-61" value="Show lispInterpreter Result" style="html=1;verticalAlign=bottom;endArrow=open;dashed=1;endSize=8;curved=0;rounded=0;" parent="1" edge="1">
          <mxGeometry relative="1" as="geometry">
            <mxPoint x="280" y="1240" as="targetPoint" />
            <mxPoint x="430" y="1240" as="sourcePoint" />
          </mxGeometry>
        </mxCell>
        <mxCell id="ovnq_b6lXp1vGBs1KSgW-62" value="eval()" style="html=1;verticalAlign=bottom;endArrow=block;curved=0;rounded=0;" parent="1" edge="1">
          <mxGeometry relative="1" as="geometry">
            <mxPoint x="440.0035294117645" y="1040" as="sourcePoint" />
            <mxPoint x="620" y="1040" as="targetPoint" />
            <mxPoint as="offset" />
          </mxGeometry>
        </mxCell>
        <mxCell id="ovnq_b6lXp1vGBs1KSgW-63" value="Expression" style="html=1;verticalAlign=bottom;endArrow=open;dashed=1;endSize=8;curved=0;rounded=0;" parent="1" edge="1">
          <mxGeometry relative="1" as="geometry">
            <mxPoint x="440.0035294117645" y="1099.29" as="targetPoint" />
            <mxPoint as="offset" />
            <mxPoint x="620" y="1099" as="sourcePoint" />
          </mxGeometry>
        </mxCell>
        <mxCell id="ovnq_b6lXp1vGBs1KSgW-64" value="eval()" style="html=1;verticalAlign=bottom;endArrow=block;curved=0;rounded=0;entryX=0;entryY=0;entryDx=0;entryDy=5;" parent="1" source="ovnq_b6lXp1vGBs1KSgW-52" target="ovnq_b6lXp1vGBs1KSgW-56" edge="1">
          <mxGeometry x="-0.0018" relative="1" as="geometry">
            <mxPoint x="550" y="1128" as="sourcePoint" />
            <mxPoint as="offset" />
          </mxGeometry>
        </mxCell>
        <mxCell id="ovnq_b6lXp1vGBs1KSgW-65" value="Expression" style="html=1;verticalAlign=bottom;endArrow=open;dashed=1;endSize=8;curved=0;rounded=0;exitX=0;exitY=1;exitDx=0;exitDy=-5;" parent="1" source="ovnq_b6lXp1vGBs1KSgW-56" target="ovnq_b6lXp1vGBs1KSgW-52" edge="1">
          <mxGeometry relative="1" as="geometry">
            <mxPoint x="550" y="1198" as="targetPoint" />
          </mxGeometry>
        </mxCell>
        <mxCell id="ovnq_b6lXp1vGBs1KSgW-66" value="Expression" style="html=1;verticalAlign=bottom;endArrow=open;dashed=1;endSize=8;curved=0;rounded=0;exitX=0;exitY=1;exitDx=0;exitDy=-5;" parent="1" target="ovnq_b6lXp1vGBs1KSgW-55" edge="1">
          <mxGeometry x="-0.0025" relative="1" as="geometry">
            <mxPoint x="695" y="1248" as="targetPoint" />
            <mxPoint as="offset" />
            <mxPoint x="775" y="1225" as="sourcePoint" />
          </mxGeometry>
        </mxCell>
        <mxCell id="ovnq_b6lXp1vGBs1KSgW-67" value="lispInterpreter(envirnment)" style="html=1;verticalAlign=bottom;endArrow=block;curved=0;rounded=0;entryX=0;entryY=0;entryDx=0;entryDy=5;" parent="1" source="ovnq_b6lXp1vGBs1KSgW-55" edge="1">
          <mxGeometry relative="1" as="geometry">
            <mxPoint x="695" y="1178" as="sourcePoint" />
            <mxPoint x="775" y="1195" as="targetPoint" />
          </mxGeometry>
        </mxCell>
        <mxCell id="ovnq_b6lXp1vGBs1KSgW-68" value="LispInterpreter" style="shape=umlLifeline;perimeter=lifelinePerimeter;whiteSpace=wrap;html=1;container=1;dropTarget=0;collapsible=0;recursiveResize=0;outlineConnect=0;portConstraint=eastwest;newEdgeStyle={&quot;curved&quot;:0,&quot;rounded&quot;:0};" parent="1" vertex="1">
          <mxGeometry x="750" y="940" width="100" height="400" as="geometry" />
        </mxCell>
        <mxCell id="ovnq_b6lXp1vGBs1KSgW-69" value="" style="html=1;points=[[0,0,0,0,5],[0,1,0,0,-5],[1,0,0,0,5],[1,1,0,0,-5]];perimeter=orthogonalPerimeter;outlineConnect=0;targetShapes=umlLifeline;portConstraint=eastwest;newEdgeStyle={&quot;curved&quot;:0,&quot;rounded&quot;:0};" parent="ovnq_b6lXp1vGBs1KSgW-68" vertex="1">
          <mxGeometry x="45" y="230" width="10" height="80" as="geometry" />
        </mxCell>
        <mxCell id="ovnq_b6lXp1vGBs1KSgW-70" value="" style="html=1;points=[[0,0,0,0,5],[0,1,0,0,-5],[1,0,0,0,5],[1,1,0,0,-5]];perimeter=orthogonalPerimeter;outlineConnect=0;targetShapes=umlLifeline;portConstraint=eastwest;newEdgeStyle={&quot;curved&quot;:0,&quot;rounded&quot;:0};" parent="ovnq_b6lXp1vGBs1KSgW-68" vertex="1">
          <mxGeometry x="45" y="80" width="10" height="80" as="geometry" />
        </mxCell>
        <mxCell id="ovnq_b6lXp1vGBs1KSgW-71" value="eval(Object)" style="html=1;verticalAlign=bottom;endArrow=block;curved=0;rounded=0;" parent="1" target="ovnq_b6lXp1vGBs1KSgW-68" edge="1">
          <mxGeometry width="80" relative="1" as="geometry">
            <mxPoint x="633" y="1050" as="sourcePoint" />
            <mxPoint x="713" y="1050" as="targetPoint" />
          </mxGeometry>
        </mxCell>
        <mxCell id="ovnq_b6lXp1vGBs1KSgW-72" value="Expression" style="html=1;verticalAlign=bottom;endArrow=open;dashed=1;endSize=8;curved=0;rounded=0;" parent="1" target="ovnq_b6lXp1vGBs1KSgW-57" edge="1">
          <mxGeometry relative="1" as="geometry">
            <mxPoint x="640" y="1080" as="targetPoint" />
            <mxPoint as="offset" />
            <mxPoint x="790" y="1080" as="sourcePoint" />
          </mxGeometry>
        </mxCell>
        <mxCell id="34o0Q8A2qaYD3tV-vggR-7" style="edgeStyle=orthogonalEdgeStyle;rounded=0;orthogonalLoop=1;jettySize=auto;html=1;" edge="1" parent="1" source="ovnq_b6lXp1vGBs1KSgW-73" target="34o0Q8A2qaYD3tV-vggR-2">
          <mxGeometry relative="1" as="geometry" />
        </mxCell>
        <mxCell id="ovnq_b6lXp1vGBs1KSgW-73" value="AritmethicOperation" style="swimlane;fontStyle=1;align=center;verticalAlign=top;childLayout=stackLayout;horizontal=1;startSize=26;horizontalStack=0;resizeParent=1;resizeParentMax=0;resizeLast=0;collapsible=1;marginBottom=0;whiteSpace=wrap;html=1;" parent="1" vertex="1">
          <mxGeometry x="-220" y="195" width="160" height="420" as="geometry" />
        </mxCell>
        <mxCell id="ovnq_b6lXp1vGBs1KSgW-74" value="- key: String&lt;div&gt;- result: String&lt;/div&gt;&lt;div&gt;+ patterns: Pattern&lt;/div&gt;&lt;div&gt;+ matcher: Matcher&lt;/div&gt;&lt;div&gt;+ total: int&lt;/div&gt;&lt;div&gt;+ isFirstToken: boolean&lt;/div&gt;" style="text;strokeColor=none;fillColor=none;align=left;verticalAlign=top;spacingLeft=4;spacingRight=4;overflow=hidden;rotatable=0;points=[[0,0.5],[1,0.5]];portConstraint=eastwest;whiteSpace=wrap;html=1;" parent="ovnq_b6lXp1vGBs1KSgW-73" vertex="1">
          <mxGeometry y="26" width="160" height="114" as="geometry" />
        </mxCell>
        <mxCell id="ovnq_b6lXp1vGBs1KSgW-75" value="" style="line;strokeWidth=1;fillColor=none;align=left;verticalAlign=middle;spacingTop=-1;spacingLeft=3;spacingRight=3;rotatable=0;labelPosition=right;points=[];portConstraint=eastwest;strokeColor=inherit;" parent="ovnq_b6lXp1vGBs1KSgW-73" vertex="1">
          <mxGeometry y="140" width="160" height="8" as="geometry" />
        </mxCell>
        <mxCell id="ovnq_b6lXp1vGBs1KSgW-76" value="+ addResults(String key, String result): void&lt;div&gt;&lt;br&gt;&lt;div&gt;+&amp;nbsp;addOperation(String expression, ExecutionContext context): IOperationResult&lt;/div&gt;&lt;div&gt;&lt;br&gt;&lt;/div&gt;&lt;/div&gt;&lt;div&gt;+substractOperation(String expression, ExecutionContext context): IOperationResult&lt;/div&gt;&lt;div&gt;&lt;br&gt;&lt;/div&gt;&lt;div&gt;+&amp;nbsp;divisionOperation(String expression, ExecutionContext context): IOperationResult&lt;/div&gt;&lt;div&gt;&lt;br&gt;&lt;/div&gt;&lt;div&gt;+&amp;nbsp;multiplicationOperation(String expression, ExecutionContext context): IOperationResult&lt;br&gt;&lt;/div&gt;" style="text;strokeColor=none;fillColor=none;align=left;verticalAlign=top;spacingLeft=4;spacingRight=4;overflow=hidden;rotatable=0;points=[[0,0.5],[1,0.5]];portConstraint=eastwest;whiteSpace=wrap;html=1;" parent="ovnq_b6lXp1vGBs1KSgW-73" vertex="1">
          <mxGeometry y="148" width="160" height="272" as="geometry" />
        </mxCell>
        <mxCell id="34o0Q8A2qaYD3tV-vggR-1" value="&lt;div&gt;&amp;lt;&amp;lt;Interphase&amp;gt;&amp;gt;&lt;/div&gt;IOperationResult" style="swimlane;fontStyle=0;childLayout=stackLayout;horizontal=1;startSize=26;fillColor=none;horizontalStack=0;resizeParent=1;resizeParentMax=0;resizeLast=0;collapsible=1;marginBottom=0;whiteSpace=wrap;html=1;" vertex="1" parent="1">
          <mxGeometry x="-310" y="90" width="140" height="60" as="geometry" />
        </mxCell>
        <mxCell id="34o0Q8A2qaYD3tV-vggR-2" value="+ performOperation: void" style="text;strokeColor=none;fillColor=none;align=left;verticalAlign=top;spacingLeft=4;spacingRight=4;overflow=hidden;rotatable=0;points=[[0,0.5],[1,0.5]];portConstraint=eastwest;whiteSpace=wrap;html=1;" vertex="1" parent="34o0Q8A2qaYD3tV-vggR-1">
          <mxGeometry y="26" width="140" height="34" as="geometry" />
        </mxCell>
        <mxCell id="34o0Q8A2qaYD3tV-vggR-5" value="" style="endArrow=diamondThin;endFill=1;endSize=24;html=1;rounded=0;exitX=0;exitY=0.5;exitDx=0;exitDy=0;entryX=0.441;entryY=-0.035;entryDx=0;entryDy=0;entryPerimeter=0;" edge="1" parent="1" source="ovnq_b6lXp1vGBs1KSgW-1" target="34o0Q8A2qaYD3tV-vggR-1">
          <mxGeometry width="160" relative="1" as="geometry">
            <mxPoint x="-200" y="50" as="sourcePoint" />
            <mxPoint x="-40" y="50" as="targetPoint" />
          </mxGeometry>
        </mxCell>
        <mxCell id="34o0Q8A2qaYD3tV-vggR-8" style="edgeStyle=orthogonalEdgeStyle;rounded=0;orthogonalLoop=1;jettySize=auto;html=1;entryX=0;entryY=0.5;entryDx=0;entryDy=0;" edge="1" parent="1" source="ovnq_b6lXp1vGBs1KSgW-76" target="ovnq_b6lXp1vGBs1KSgW-5">
          <mxGeometry relative="1" as="geometry" />
        </mxCell>
        <mxCell id="34o0Q8A2qaYD3tV-vggR-9" value="PredicadosOperation" style="swimlane;fontStyle=1;align=center;verticalAlign=top;childLayout=stackLayout;horizontal=1;startSize=26;horizontalStack=0;resizeParent=1;resizeParentMax=0;resizeLast=0;collapsible=1;marginBottom=0;whiteSpace=wrap;html=1;" vertex="1" parent="1">
          <mxGeometry x="430" y="300" width="160" height="580" as="geometry" />
        </mxCell>
        <mxCell id="34o0Q8A2qaYD3tV-vggR-10" value="- key: String&lt;div&gt;- result: String&lt;/div&gt;&lt;div&gt;&lt;div&gt;+ patterns: Pattern&lt;/div&gt;&lt;div&gt;+ matcher: Matcher&lt;/div&gt;&lt;/div&gt;&lt;div&gt;&lt;br&gt;&lt;/div&gt;" style="text;strokeColor=none;fillColor=none;align=left;verticalAlign=top;spacingLeft=4;spacingRight=4;overflow=hidden;rotatable=0;points=[[0,0.5],[1,0.5]];portConstraint=eastwest;whiteSpace=wrap;html=1;" vertex="1" parent="34o0Q8A2qaYD3tV-vggR-9">
          <mxGeometry y="26" width="160" height="74" as="geometry" />
        </mxCell>
        <mxCell id="34o0Q8A2qaYD3tV-vggR-11" value="" style="line;strokeWidth=1;fillColor=none;align=left;verticalAlign=middle;spacingTop=-1;spacingLeft=3;spacingRight=3;rotatable=0;labelPosition=right;points=[];portConstraint=eastwest;strokeColor=inherit;" vertex="1" parent="34o0Q8A2qaYD3tV-vggR-9">
          <mxGeometry y="100" width="160" height="8" as="geometry" />
        </mxCell>
        <mxCell id="34o0Q8A2qaYD3tV-vggR-12" value="+ PredicadosOperations(): void&lt;div&gt;+&amp;nbsp;PredicadosOperations (String result): void&lt;/div&gt;&lt;div&gt;+ joinResults (String key, String result): void&lt;/div&gt;&lt;div&gt;+ setqOp (String expression, ExecutionContext context): IPredicadosResult&lt;/div&gt;&lt;div&gt;+&amp;nbsp;atomOp(String expression, ExecutionContext context): IPredicadosResult&lt;/div&gt;&lt;div&gt;+&amp;nbsp;listOp(String expression, ExecutionContext context): IPredicadosResult&lt;br&gt;&lt;/div&gt;&lt;div&gt;+ equalOp(String expression, ExecutionContext context): IPredicadosResult&lt;br&gt;&lt;/div&gt;&lt;div&gt;+ lessThanOp(String expression, ExecutionContext context): IPredicadosResult&lt;br&gt;&lt;/div&gt;&lt;div&gt;+&amp;nbsp;greaterThanOp(String expression, ExecutionContext context): IPredicadosResult&lt;br&gt;&lt;/div&gt;&lt;div&gt;- evaluateValues&amp;nbsp;(String value, ExecutionContext context): int&lt;/div&gt;" style="text;strokeColor=none;fillColor=none;align=left;verticalAlign=top;spacingLeft=4;spacingRight=4;overflow=hidden;rotatable=0;points=[[0,0.5],[1,0.5]];portConstraint=eastwest;whiteSpace=wrap;html=1;" vertex="1" parent="34o0Q8A2qaYD3tV-vggR-9">
          <mxGeometry y="108" width="160" height="472" as="geometry" />
        </mxCell>
        <mxCell id="34o0Q8A2qaYD3tV-vggR-13" value="&amp;lt;&amp;lt;Interphase&amp;gt;&amp;gt;&lt;div&gt;IPredicadosResult&lt;/div&gt;" style="swimlane;fontStyle=0;childLayout=stackLayout;horizontal=1;startSize=26;fillColor=none;horizontalStack=0;resizeParent=1;resizeParentMax=0;resizeLast=0;collapsible=1;marginBottom=0;whiteSpace=wrap;html=1;" vertex="1" parent="1">
          <mxGeometry x="230" y="290" width="140" height="60" as="geometry" />
        </mxCell>
        <mxCell id="34o0Q8A2qaYD3tV-vggR-14" value="+ performPredicado: void" style="text;strokeColor=none;fillColor=none;align=left;verticalAlign=top;spacingLeft=4;spacingRight=4;overflow=hidden;rotatable=0;points=[[0,0.5],[1,0.5]];portConstraint=eastwest;whiteSpace=wrap;html=1;" vertex="1" parent="34o0Q8A2qaYD3tV-vggR-13">
          <mxGeometry y="26" width="140" height="34" as="geometry" />
        </mxCell>
        <mxCell id="34o0Q8A2qaYD3tV-vggR-17" value="" style="endArrow=diamondThin;endFill=1;endSize=24;html=1;rounded=0;entryX=0.5;entryY=0;entryDx=0;entryDy=0;exitX=1.009;exitY=-0.024;exitDx=0;exitDy=0;exitPerimeter=0;" edge="1" parent="1" target="34o0Q8A2qaYD3tV-vggR-13">
          <mxGeometry width="160" relative="1" as="geometry">
            <mxPoint x="167" y="100" as="sourcePoint" />
            <mxPoint x="320" y="265" as="targetPoint" />
          </mxGeometry>
        </mxCell>
        <mxCell id="34o0Q8A2qaYD3tV-vggR-19" style="edgeStyle=orthogonalEdgeStyle;rounded=0;orthogonalLoop=1;jettySize=auto;html=1;entryX=0.466;entryY=1.024;entryDx=0;entryDy=0;entryPerimeter=0;" edge="1" parent="1" source="34o0Q8A2qaYD3tV-vggR-9" target="34o0Q8A2qaYD3tV-vggR-14">
          <mxGeometry relative="1" as="geometry" />
        </mxCell>
        <mxCell id="34o0Q8A2qaYD3tV-vggR-20" value="SintaxScanner" style="swimlane;fontStyle=1;align=center;verticalAlign=top;childLayout=stackLayout;horizontal=1;startSize=26;horizontalStack=0;resizeParent=1;resizeParentMax=0;resizeLast=0;collapsible=1;marginBottom=0;whiteSpace=wrap;html=1;" vertex="1" parent="1">
          <mxGeometry x="20" y="160" width="160" height="120" as="geometry" />
        </mxCell>
        <mxCell id="34o0Q8A2qaYD3tV-vggR-22" value="" style="line;strokeWidth=1;fillColor=none;align=left;verticalAlign=middle;spacingTop=-1;spacingLeft=3;spacingRight=3;rotatable=0;labelPosition=right;points=[];portConstraint=eastwest;strokeColor=inherit;" vertex="1" parent="34o0Q8A2qaYD3tV-vggR-20">
          <mxGeometry y="26" width="160" height="8" as="geometry" />
        </mxCell>
        <mxCell id="34o0Q8A2qaYD3tV-vggR-23" value="- evaluate&amp;nbsp;(String regex, String expression): boolean&lt;div&gt;+ getState (String expression): ArrayList&amp;lt;String&amp;gt;&lt;/div&gt;" style="text;strokeColor=none;fillColor=none;align=left;verticalAlign=top;spacingLeft=4;spacingRight=4;overflow=hidden;rotatable=0;points=[[0,0.5],[1,0.5]];portConstraint=eastwest;whiteSpace=wrap;html=1;" vertex="1" parent="34o0Q8A2qaYD3tV-vggR-20">
          <mxGeometry y="34" width="160" height="86" as="geometry" />
        </mxCell>
        <mxCell id="34o0Q8A2qaYD3tV-vggR-24" style="edgeStyle=orthogonalEdgeStyle;rounded=0;orthogonalLoop=1;jettySize=auto;html=1;entryX=0.484;entryY=1.115;entryDx=0;entryDy=0;entryPerimeter=0;" edge="1" parent="1" source="34o0Q8A2qaYD3tV-vggR-23" target="ovnq_b6lXp1vGBs1KSgW-3">
          <mxGeometry relative="1" as="geometry" />
        </mxCell>
        <mxCell id="34o0Q8A2qaYD3tV-vggR-25" style="edgeStyle=orthogonalEdgeStyle;rounded=0;orthogonalLoop=1;jettySize=auto;html=1;entryX=1;entryY=0.5;entryDx=0;entryDy=0;" edge="1" parent="1" source="ovnq_b6lXp1vGBs1KSgW-5" target="ovnq_b6lXp1vGBs1KSgW-3">
          <mxGeometry relative="1" as="geometry">
            <Array as="points">
              <mxPoint x="10" y="478" />
              <mxPoint x="10" y="330" />
              <mxPoint x="210" y="330" />
              <mxPoint x="210" y="87" />
            </Array>
          </mxGeometry>
        </mxCell>
      </root>
    </mxGraphModel>
  </diagram>
</mxfile>
